<svg width="50" height="50" viewBox="0 0 50 50" fill="none" xmlns="http://www.w3.org/2000/svg">
<rect width="50" height="50" rx="25" fill="#F2D8C0"/>
<path fill-rule="evenodd" clip-rule="evenodd" d="M23.7981 13.373C24.2444 12.2544 25.7692 12.322 26.204 13.3609L26.2066 13.3671L26.2065 13.3671C27.976 17.6751 29.7455 21.9849 31.5149 26.2946L31.5169 26.2993C33.287 30.6106 35.057 34.9219 36.8271 39.2313L36.8335 39.2474C37.062 39.8322 36.8475 40.5304 36.2783 40.8678L36.2665 40.8748L36.2665 40.8747C33.0215 42.739 29.2986 43.8026 25.5587 43.8823C25.5559 43.8824 25.5531 43.8825 25.5503 43.8826C21.446 44.0035 17.3014 42.9237 13.74 40.8743L13.7287 40.8679L13.7288 40.8678C13.199 40.5538 12.9113 39.8627 13.1831 39.2237C14.9521 34.9168 16.7211 30.6081 18.4902 26.2993C20.2595 21.99 22.0288 17.6806 23.7981 13.373ZM25.4645 41.8842C25.4742 41.8837 25.4839 41.8834 25.4936 41.8832C28.6979 41.8186 31.9041 40.9562 34.747 39.431C33.0536 35.308 31.3601 31.1834 29.6667 27.0589C28.1123 23.2729 26.5579 19.487 25.0035 15.7023C23.4491 19.487 21.8947 23.2729 20.3403 27.0589L20.3398 27.0602C18.6465 31.1844 16.9532 35.3087 15.2599 39.4314C18.3824 41.1087 21.9488 41.9828 25.4645 41.8842ZM15.0205 40.0136L15.0278 39.9963C15.0255 40.0021 15.023 40.0078 15.0205 40.0136ZM25.657 14.1109C25.6552 14.1154 25.6534 14.12 25.6515 14.1244L25.657 14.1109Z" fill="black"/>
<path d="M30.6235 14.8424C30.1378 15.2243 29.8915 15.8441 29.9689 16.4639C30.1097 17.6169 29.1595 18.5898 28.0334 18.4457C27.4282 18.3664 26.8229 18.6258 26.4499 19.1159C25.7601 20.0311 24.4088 20.0311 23.712 19.1159C23.339 18.6186 22.7337 18.3664 22.1285 18.4457C21.0094 18.5898 20.0522 17.6169 20.193 16.4639C20.2704 15.8441 20.017 15.2243 19.5384 14.8424C18.6446 14.1362 18.6446 12.7525 19.5384 12.0391C20.0241 11.6571 20.2704 11.0373 20.193 10.4176C20.0522 9.26454 21.0024 8.29166 22.1285 8.43579C22.7337 8.51506 23.339 8.25563 23.712 7.76558C24.4018 6.85036 25.7531 6.85036 26.4499 7.76558C26.8229 8.26283 27.4282 8.51506 28.0334 8.43579C29.1525 8.29166 30.1097 9.26454 29.9689 10.4176C29.8915 11.0373 30.1449 11.6571 30.6235 12.0391C31.5173 12.7453 31.5173 14.1289 30.6235 14.8424Z" fill="#F2A35A"/>
<path fill-rule="evenodd" clip-rule="evenodd" d="M29.3171 22.0996C29.7122 22.4855 29.7197 23.1186 29.3338 23.5137C28.9733 23.8829 27.8745 24.7877 25.9873 25.9471C24.927 26.5984 23.6247 27.0166 22.4754 27.2808C21.3164 27.5473 20.2384 27.674 19.5784 27.7086C19.0268 27.7376 18.5563 27.314 18.5273 26.7624C18.4984 26.2109 18.922 25.7403 19.4735 25.7114C20.0196 25.6827 20.9828 25.5719 22.0273 25.3317C23.0815 25.0893 24.1451 24.7316 24.9404 24.243C26.7645 23.1223 27.7068 22.3172 27.903 22.1163C28.2888 21.7212 28.922 21.7137 29.3171 22.0996ZM30.8341 25.872C31.2969 26.1733 31.4278 26.7928 31.1265 27.2556C30.4932 28.2282 28.4438 30.2054 24.8084 31.631C21.2017 33.0453 18.204 33.2918 17.0498 33.218C16.4986 33.1827 16.0804 32.7073 16.1157 32.1561C16.151 31.605 16.6264 31.1868 17.1775 31.222C18.0026 31.2748 20.7078 31.0907 24.0782 29.769C27.4198 28.4586 29.094 26.7118 29.4504 26.1644C29.7517 25.7015 30.3712 25.5706 30.8341 25.872ZM32.4792 30.6512C32.9784 30.8876 33.1914 31.4838 32.955 31.983L32.0512 31.555C32.955 31.983 32.9552 31.9826 32.955 31.983L32.9543 31.9846L32.9533 31.9866L32.9511 31.9913L32.9448 32.0042C32.9398 32.0143 32.9333 32.0274 32.9252 32.0433C32.9091 32.0752 32.8866 32.1184 32.8574 32.1718C32.7992 32.2786 32.7143 32.4266 32.6005 32.6064C32.3729 32.9658 32.0285 33.4548 31.5481 33.9984C30.5868 35.0863 29.0764 36.3985 26.8708 37.3224C22.5133 39.1476 17.6886 38.594 15.1236 38.2459C14.5763 38.1717 14.1929 37.6678 14.2671 37.1205C14.3414 36.5733 14.8453 36.1898 15.3925 36.2641C17.9614 36.6127 22.2909 37.0724 26.0981 35.4777C27.9748 34.6915 29.2478 33.5812 30.0493 32.6741C30.4504 32.2202 30.7322 31.8185 30.9106 31.5367C30.9997 31.396 31.0626 31.2856 31.1015 31.2143C31.121 31.1787 31.1343 31.1529 31.1419 31.1379L31.1489 31.1239L31.1481 31.1257M32.4792 30.6512C31.9813 30.4154 31.3865 30.6273 31.1489 31.1239ZM31.1489 31.1239C31.1492 31.1233 31.1492 31.1235 31.1489 31.1239Z" fill="black"/>
</svg>
