<svg width="64" height="64" viewBox="0 0 64 64" fill="none" xmlns="http://www.w3.org/2000/svg">
<g clip-path="url(#clip0_19_723)">
<path d="M31.9967 63.9934C49.668 63.9934 63.9934 49.668 63.9934 31.9967C63.9934 14.3254 49.668 0 31.9967 0C14.3254 0 0 14.3254 0 31.9967C0 49.668 14.3254 63.9934 31.9967 63.9934Z" fill="#F2D8C0"/>
<path d="M31.9966 56.8749C45.7365 56.8749 56.8748 45.7365 56.8748 31.9967C56.8748 18.2568 45.7365 7.1185 31.9966 7.1185C18.2568 7.1185 7.11841 18.2568 7.11841 31.9967C7.11841 45.7365 18.2568 56.8749 31.9966 56.8749Z" fill="white"/>
<path fill-rule="evenodd" clip-rule="evenodd" d="M31.9966 54.8749C44.6319 54.8749 54.8748 44.632 54.8748 31.9967C54.8748 19.3614 44.6319 9.1185 31.9966 9.1185C19.3613 9.1185 9.11841 19.3614 9.11841 31.9967C9.11841 44.632 19.3613 54.8749 31.9966 54.8749ZM56.8748 31.9967C56.8748 45.7365 45.7365 56.8749 31.9966 56.8749C18.2568 56.8749 7.11841 45.7365 7.11841 31.9967C7.11841 18.2568 18.2568 7.1185 31.9966 7.1185C45.7365 7.1185 56.8748 18.2568 56.8748 31.9967Z" fill="black"/>
<path d="M33.4275 18.6995L36.4557 24.8313C36.6892 25.2983 37.1337 25.6298 37.6535 25.7051L44.418 26.6919C45.7212 26.8802 46.241 28.4847 45.2993 29.4037L40.403 34.1721C40.0263 34.5412 39.8606 35.061 39.9435 35.5807L41.096 42.3227C41.322 43.6183 39.9585 44.6127 38.7909 44.0025L32.742 40.8236C32.275 40.5826 31.7251 40.5826 31.258 40.8236L25.2091 44.0025C24.0415 44.6127 22.678 43.6259 22.904 42.3227L24.0566 35.5807C24.147 35.0685 23.9737 34.5412 23.5971 34.1721L18.7007 29.4037C17.7591 28.4847 18.2788 26.8802 19.582 26.6919L26.3466 25.7051C26.8663 25.6298 27.3108 25.3059 27.5443 24.8313L30.5725 18.6995C31.1526 17.5168 32.8399 17.5168 33.4275 18.6995Z" fill="#F2A35A"/>
</g>
<defs>
<clipPath id="clip0_19_723">
<rect width="64" height="64" fill="white"/>
</clipPath>
</defs>
</svg>
