<svg width="18" height="19" fill="none" xmlns="http://www.w3.org/2000/svg"><g clip-path="url(#a)"><path d="M2.453 5.72 9 9.507l6.547-3.787M9 17.06V9.5m6.75 3v-6A1.5 1.5 0 0 0 15 5.202l-5.25-3a1.5 1.5 0 0 0-1.5 0l-5.25 3A1.5 1.5 0 0 0 2.25 6.5v6A1.5 1.5 0 0 0 3 13.797l5.25 3a1.5 1.5 0 0 0 1.5 0l5.25-3a1.5 1.5 0 0 0 .75-1.297Z" stroke="#0A0103" stroke-width="2" stroke-linecap="round" stroke-linejoin="round"/></g><defs><clipPath id="a"><path fill="#fff" transform="translate(0 .5)" d="M0 0h18v18H0z"/></clipPath></defs></svg>