<svg xmlns="http://www.w3.org/2000/svg" width="36" height="36" fill="none"><path fill="#D0D5DD" d="M17.981 35.963c9.931 0 17.982-8.05 17.982-17.982C35.963 8.051 27.913 0 17.98 0 8.051 0 0 8.05 0 17.981c0 9.931 8.05 17.982 17.981 17.982Z"/><path fill="#fff" d="M31.337 20.518c-.933.82-1.306 2.052-1.045 3.246a3.429 3.429 0 0 1-2.984 4.103 3.341 3.341 0 0 0-2.76 2.015c-.821 1.865-3.06 2.574-4.813 1.567-1.045-.597-2.35-.597-3.432 0-1.754 1.007-3.992.298-4.813-1.567a3.392 3.392 0 0 0-2.76-2.015 3.43 3.43 0 0 1-2.985-4.103 3.417 3.417 0 0 0-1.044-3.246c-1.493-1.343-1.493-3.73 0-5.074A3.417 3.417 0 0 0 5.745 12.2 3.43 3.43 0 0 1 8.73 8.095a3.341 3.341 0 0 0 2.76-2.014c.821-1.866 3.06-2.574 4.813-1.567 1.044.597 2.35.597 3.432 0 1.753-1.007 3.992-.299 4.812 1.567a3.392 3.392 0 0 0 2.761 2.014 3.429 3.429 0 0 1 2.984 4.104 3.417 3.417 0 0 0 1.045 3.245c1.53 1.38 1.53 3.731 0 5.074Z"/><path fill="#fff" d="M31.337 20.518c-.933.82-1.306 2.052-1.045 3.246a3.429 3.429 0 0 1-2.984 4.103 3.341 3.341 0 0 0-2.76 2.015c-.821 1.865-3.06 2.574-4.813 1.567-1.045-.597-2.35-.597-3.432 0-1.754 1.007-3.992.298-4.813-1.567a3.392 3.392 0 0 0-2.76-2.015 3.43 3.43 0 0 1-2.985-4.103 3.417 3.417 0 0 0-1.044-3.246c-1.493-1.343-1.493-3.73 0-5.074A3.417 3.417 0 0 0 5.745 12.2 3.43 3.43 0 0 1 8.73 8.095a3.341 3.341 0 0 0 2.76-2.014c.821-1.866 3.06-2.574 4.813-1.567 1.044.597 2.35.597 3.432 0 1.753-1.007 3.992-.299 4.812 1.567a3.392 3.392 0 0 0 2.761 2.014 3.429 3.429 0 0 1 2.984 4.104 3.417 3.417 0 0 0 1.045 3.245c1.53 1.38 1.53 3.731 0 5.074Z"/><path fill="#D0D5DD" d="M21.414 32.344a3.737 3.737 0 0 1-1.903-.522 3.11 3.11 0 0 0-3.022 0 3.753 3.753 0 0 1-3.096.336 3.773 3.773 0 0 1-2.313-2.09c-.448-.97-1.38-1.678-2.425-1.79a3.742 3.742 0 0 1-2.686-1.567 3.784 3.784 0 0 1-.634-3.022 3.063 3.063 0 0 0-.933-2.872 3.795 3.795 0 0 1-1.268-2.836c0-1.081.447-2.126 1.268-2.835.82-.709 1.157-1.828.933-2.872a3.87 3.87 0 0 1 .634-3.06c.634-.857 1.604-1.454 2.686-1.566a3.022 3.022 0 0 0 2.462-1.79 3.773 3.773 0 0 1 2.313-2.09 3.753 3.753 0 0 1 3.096.336 3.11 3.11 0 0 0 3.022 0 3.753 3.753 0 0 1 3.097-.336 3.773 3.773 0 0 1 2.313 2.09c.447.969 1.38 1.678 2.425 1.79a3.741 3.741 0 0 1 2.686 1.567c.634.858.858 1.977.634 3.021a3.063 3.063 0 0 0 .932 2.873 3.794 3.794 0 0 1 1.269 2.835c0 1.082-.448 2.127-1.269 2.835a3.063 3.063 0 0 0-.932 2.873 3.87 3.87 0 0 1-.634 3.059c-.635.858-1.605 1.455-2.686 1.567a3.022 3.022 0 0 0-2.463 1.79 3.773 3.773 0 0 1-2.313 2.09c-.41.111-.783.186-1.193.186Zm-3.433-1.716c.672 0 1.306.187 1.903.522.746.41 1.642.523 2.425.262a2.957 2.957 0 0 0 1.828-1.642c.56-1.231 1.753-2.126 3.096-2.238A2.873 2.873 0 0 0 29.36 26.3c.485-.672.671-1.567.522-2.388a3.774 3.774 0 0 1 1.194-3.656 2.997 2.997 0 0 0 1.007-2.238c0-.858-.373-1.679-1.007-2.239a3.948 3.948 0 0 1-1.194-3.656c.186-.858 0-1.716-.522-2.387-.485-.672-1.269-1.12-2.127-1.231a3.839 3.839 0 0 1-3.096-2.239 2.957 2.957 0 0 0-1.828-1.641c-.82-.261-1.716-.187-2.425.261a3.916 3.916 0 0 1-3.842 0c-.747-.41-1.642-.522-2.425-.261a2.957 2.957 0 0 0-1.828 1.641c-.56 1.232-1.754 2.127-3.097 2.239A2.946 2.946 0 0 0 6.603 9.7c-.485.671-.671 1.566-.522 2.387a3.775 3.775 0 0 1-1.194 3.656 2.997 2.997 0 0 0-1.007 2.238c0 .858.373 1.68 1.007 2.239a3.948 3.948 0 0 1 1.194 3.656c-.187.858 0 1.716.522 2.387.485.672 1.269 1.12 2.127 1.231a3.838 3.838 0 0 1 3.096 2.239 2.957 2.957 0 0 0 1.828 1.641c.82.261 1.716.187 2.425-.261a3.903 3.903 0 0 1 1.902-.485Z"/><g fill="#D0D5DD"><path d="M24.211 22.757c0-.075-.037-.112-.037-.15-.112-.26-.373-.485-1.418-1.492-2.2-2.2-2.089-2.387-2.723-2.686-.56-.26-1.231-.373-1.865-.373-.672 0-1.306.112-1.866.373-.634.299-.56.485-2.723 2.686-1.007 1.045-1.306 1.269-1.418 1.492 0 .038-.037.112-.037.15-.41 1.53 1.865 3.283 1.977 3.357.634.485 1.194.709 1.53.858.82.336 1.716.448 2.574.41.858.038 1.753-.074 2.574-.41a6.133 6.133 0 0 0 1.53-.858c.037-.074 2.313-1.828 1.902-3.357Z"/><path d="M18.466 27.83h-.336c-.97.038-1.902-.112-2.723-.447-.336-.15-.97-.41-1.642-.896-.112-.074-2.611-1.977-2.126-3.842v-.038c0-.037.037-.074.037-.074l.038-.112c.111-.261.298-.448.82-.933l.672-.671c.858-.896 1.38-1.418 1.716-1.791.522-.56.709-.746 1.156-.97a4.883 4.883 0 0 1 2.09-.448c.746 0 1.454.15 2.051.448.448.224.634.41 1.157.97.336.373.858.933 1.716 1.79.298.3.522.523.671.672.523.485.71.709.821.933v.037c.037.075.037.15.075.187.485 1.902-2.127 3.842-2.164 3.842a6.558 6.558 0 0 1-1.604.896 6.516 6.516 0 0 1-2.425.447Zm-.336-.895c.896.037 1.716-.075 2.425-.373.224-.075.784-.336 1.418-.784.335-.26 2.089-1.79 1.828-2.872V22.794c-.038-.112-.261-.299-.634-.672l-.71-.708c-.895-.896-1.38-1.455-1.753-1.828-.522-.56-.597-.635-.858-.746-.522-.224-1.119-.336-1.79-.336-.56 0-1.12.112-1.605.335-.298.15-.373.187-.858.747a47.95 47.95 0 0 1-1.753 1.828l-.709.708c-.373.373-.56.56-.597.672 0 .037-.037.112-.037.15-.261 1.044 1.38 2.536 1.828 2.872.56.447 1.12.671 1.418.783.671.224 1.492.336 2.387.336ZM9.774 17.123c-.15.784-.15 2.388.709 2.76.783.337 1.753-.484 1.865-.559.224-.186.82-.709.82-1.417 0-.597-.41-1.045-1.267-1.866-.485-.485-.784-.746-1.045-.708-.56 0-.97 1.119-1.082 1.79Z"/><path d="M10.93 20.406c-.223 0-.41-.037-.596-.112-1.157-.522-1.157-2.275-1.008-3.282.038-.224.41-2.09 1.567-2.164.485-.038.858.335 1.38.858.896.895 1.418 1.417 1.38 2.2 0 .896-.708 1.493-.97 1.717l-.037.037c-.708.56-1.305.746-1.716.746Zm.038-4.663c-.224 0-.597.672-.746 1.418-.15.783-.075 2.052.447 2.275.299.15.821-.037 1.38-.485l.038-.037c.186-.15.634-.56.671-1.045 0-.41-.298-.708-1.119-1.566-.224-.187-.56-.523-.671-.56ZM26.188 17.123c.15.784.15 2.388-.708 2.76-.784.337-1.754-.484-1.866-.559-.224-.186-.82-.709-.82-1.417 0-.597.41-1.045 1.268-1.866.485-.485.783-.746 1.044-.708.597 0 .97 1.119 1.082 1.79Z"/><path d="M25.07 20.406c-.448 0-1.008-.186-1.717-.708l-.037-.038c-.299-.26-.97-.858-1.007-1.753 0-.82.485-1.306 1.38-2.201.522-.522.895-.896 1.418-.858 1.156.074 1.492 1.977 1.53 2.164.186.97.148 2.76-.97 3.245-.15.112-.374.15-.598.15Zm-.038-4.663c-.112 0-.448.373-.709.597-.82.82-1.12 1.157-1.12 1.53 0 .485.449.895.672 1.044l.038.037c.56.448 1.082.635 1.38.485.56-.223.597-1.492.448-2.275-.112-.746-.485-1.38-.71-1.418ZM20.331 8.506c.485-.112.97.485 1.754 1.492 1.007 1.306 1.828 2.35 1.641 3.619-.037.26-.149.97-.709 1.342-.932.635-2.574.038-3.32-1.007-.522-.746-.447-1.53-.335-2.649.037-.671.186-2.648.97-2.797Z"/><path d="M22.085 15.668c-1.045 0-2.201-.634-2.798-1.455-.597-.858-.522-1.753-.448-2.872v-.15c.15-1.417.41-2.947 1.38-3.133.747-.15 1.306.522 2.202 1.678l.037.075c1.045 1.306 1.902 2.462 1.679 3.917-.038.299-.187 1.157-.896 1.642a2.423 2.423 0 0 1-1.156.298Zm-1.642-6.715c-.074 0-.485.187-.671 2.35v.112c-.075 1.008-.15 1.679.261 2.276.634.895 2.015 1.38 2.686.895.41-.26.485-.858.522-1.044.187-1.045-.522-1.977-1.492-3.209l-.037-.074c-.448-.56-1.045-1.306-1.269-1.306ZM15.93 8.506c-.486-.112-.97.485-1.754 1.492-1.007 1.306-1.828 2.35-1.642 3.619.038.26.15.97.71 1.342.932.635 2.573.038 3.32-1.007.522-.746.447-1.53.335-2.649 0-.671-.186-2.648-.97-2.797Z"/><path d="M14.176 15.668c-.41 0-.82-.112-1.156-.335-.747-.485-.858-1.38-.933-1.642-.224-1.455.671-2.574 1.679-3.917l.037-.075c.895-1.156 1.455-1.828 2.201-1.678.97.186 1.231 1.716 1.38 3.133v.15c.075 1.119.15 2.014-.447 2.872-.56.858-1.716 1.492-2.761 1.492Zm1.642-6.715c-.224 0-.784.746-1.269 1.343l-.037.075c-.97 1.231-1.679 2.126-1.492 3.208.037.187.112.784.522 1.045.671.447 2.089 0 2.686-.896.41-.596.373-1.268.261-2.275v-.112c-.224-2.201-.597-2.388-.671-2.388Z"/></g><path fill="#fff" d="M21.078 21.86c0-.297-.299-.484-.56-.335L18.69 22.57h-1.343l-1.828-1.045c-.261-.149-.56.038-.56.336v2.798c0 .298.299.485.56.336l1.828-1.045h1.343l1.828 1.045c.261.149.56-.038.56-.336V21.86Z"/></svg>