<svg xmlns="http://www.w3.org/2000/svg" width="36" height="36" fill="none"><g clip-path="url(#a)"><path fill="#FEA048" d="M17.981 35.963c9.931 0 17.982-8.05 17.982-17.982C35.963 8.051 27.913 0 17.98 0 8.051 0 0 8.05 0 17.981c0 9.931 8.05 17.982 17.981 17.982Z"/><path fill="#fff" d="M17.981 31.971c7.727 0 13.99-6.263 13.99-13.99 0-7.726-6.263-13.99-13.99-13.99-7.726 0-13.99 6.264-13.99 13.99 0 7.727 6.264 13.99 13.99 13.99Z"/><path fill="#0C0103" d="M17.982 32.382c-7.91 0-14.4-6.454-14.4-14.4 0-7.91 6.49-14.4 14.4-14.4 7.908 0 14.4 6.49 14.4 14.4 0 7.946-6.454 14.4-14.4 14.4Zm0-27.98c-7.499 0-13.58 6.081-13.58 13.58 0 7.498 6.081 13.579 13.58 13.579 7.498 0 13.579-6.081 13.579-13.58 0-7.498-6.081-13.579-13.58-13.579Z"/><path fill="#FEA048" d="M24.211 22.757c0-.075-.037-.112-.037-.15-.112-.26-.373-.485-1.418-1.492-2.2-2.2-2.089-2.387-2.723-2.686-.56-.26-1.231-.373-1.865-.373-.672 0-1.306.112-1.866.373-.634.299-.56.485-2.723 2.686-1.007 1.045-1.306 1.269-1.418 1.492 0 .038-.037.112-.037.15-.41 1.53 1.865 3.283 1.977 3.357.634.485 1.194.709 1.53.858.82.336 1.716.448 2.574.41.858.038 1.753-.074 2.574-.41a6.133 6.133 0 0 0 1.53-.858c.037-.074 2.313-1.828 1.902-3.357Z"/><path fill="#0C0103" d="M18.466 27.83h-.336c-.97.038-1.902-.112-2.723-.447-.336-.15-.97-.41-1.642-.896-.112-.074-2.611-1.977-2.126-3.842v-.038c0-.037.037-.074.037-.074l.038-.112c.111-.261.298-.448.82-.933l.672-.671c.858-.896 1.38-1.418 1.716-1.791.522-.56.709-.746 1.156-.97a4.883 4.883 0 0 1 2.09-.448c.746 0 1.454.15 2.051.448.485.224.634.41 1.157.97.336.373.858.933 1.716 1.79.298.3.522.523.671.672.523.523.71.709.821.97v.037c.037.075.037.15.075.224.485 1.903-2.127 3.843-2.164 3.843-.672.522-1.343.783-1.604.895a8.462 8.462 0 0 1-2.425.373Zm-.336-.895c.896.037 1.716-.075 2.425-.373.224-.075.784-.336 1.418-.784.335-.26 2.089-1.79 1.828-2.872V22.794c-.038-.112-.261-.299-.634-.672l-.71-.708c-.895-.896-1.38-1.455-1.753-1.828-.522-.56-.597-.635-.858-.746-.522-.224-1.119-.336-1.79-.336-.56 0-1.12.112-1.605.335-.298.15-.373.187-.858.747a47.95 47.95 0 0 1-1.753 1.828l-.709.708c-.373.373-.56.56-.597.672 0 .037-.037.112-.037.15-.261 1.044 1.38 2.536 1.828 2.872.56.447 1.12.671 1.418.783.671.224 1.492.336 2.387.336Z"/><path fill="#FEA048" d="M9.774 17.123c-.15.784-.15 2.388.709 2.76.783.337 1.753-.484 1.865-.559.224-.186.82-.709.82-1.417 0-.597-.41-1.045-1.267-1.866-.485-.485-.784-.746-1.045-.708-.56 0-.97 1.119-1.082 1.79Z"/><path fill="#0C0103" d="M10.93 20.406c-.223 0-.41-.037-.596-.112-1.157-.522-1.157-2.275-1.008-3.282.038-.224.41-2.09 1.567-2.202.485-.037.858.299 1.38.858.896.896 1.418 1.418 1.38 2.201 0 .896-.708 1.493-.97 1.717l-.037.037c-.708.597-1.305.783-1.716.783Zm.038-4.663c-.224 0-.597.672-.746 1.418-.15.783-.075 2.051.447 2.275.299.15.821-.037 1.38-.485l.038-.037c.186-.15.634-.56.671-1.045 0-.41-.298-.708-1.119-1.566-.224-.187-.56-.523-.671-.56Z"/><path fill="#FEA048" d="M26.188 17.123c.15.784.15 2.388-.708 2.76-.784.337-1.754-.484-1.866-.559-.224-.186-.82-.709-.82-1.417 0-.597.41-1.045 1.268-1.866.485-.485.783-.746 1.044-.708.597 0 .97 1.119 1.082 1.79Z"/><path fill="#0C0103" d="M25.07 20.406c-.448 0-1.008-.186-1.717-.709l-.037-.037c-.299-.261-.97-.858-1.007-1.753 0-.821.485-1.306 1.38-2.201.56-.56.895-.896 1.418-.858 1.156.074 1.492 1.977 1.53 2.163.186.97.148 2.76-.97 3.246-.15.112-.374.15-.598.15Zm-.038-4.663c-.112 0-.448.373-.709.597-.82.82-1.12 1.156-1.12 1.53 0 .484.449.895.672 1.044l.038.037c.56.448 1.082.634 1.38.485.56-.224.597-1.492.448-2.276-.112-.746-.485-1.38-.71-1.417Z"/><path fill="#FEA048" d="M20.331 8.506c.485-.112.97.485 1.754 1.492 1.007 1.306 1.828 2.35 1.641 3.619-.037.26-.149.97-.709 1.342-.932.635-2.574.038-3.32-1.007-.522-.746-.447-1.53-.335-2.649.037-.671.186-2.648.97-2.797Z"/><path fill="#0C0103" d="M22.085 15.668c-1.045 0-2.201-.634-2.798-1.455-.597-.858-.522-1.753-.448-2.872v-.15c.15-1.417.41-2.91 1.38-3.133.747-.15 1.306.522 2.202 1.678l.037.075c1.045 1.306 1.902 2.462 1.679 3.917-.038.299-.187 1.157-.933 1.642a2.175 2.175 0 0 1-1.12.298Zm-1.642-6.715c-.074 0-.485.187-.671 2.35v.112c-.075 1.008-.15 1.679.261 2.276.634.895 2.015 1.38 2.686.895.41-.26.485-.858.522-1.044.187-1.045-.522-1.977-1.492-3.209l-.037-.074c-.448-.56-1.045-1.306-1.269-1.306Z"/><path fill="#FEA048" d="M15.93 8.506c-.486-.112-.97.485-1.754 1.492-1.007 1.306-1.828 2.35-1.642 3.619.038.26.15.97.71 1.342.932.635 2.573.038 3.32-1.007.522-.746.447-1.53.335-2.649 0-.671-.186-2.648-.97-2.797Z"/><path fill="#0C0103" d="M14.176 15.668c-.41 0-.82-.112-1.156-.335-.747-.485-.858-1.38-.933-1.642-.224-1.455.671-2.574 1.679-3.917l.037-.075c.895-1.156 1.455-1.828 2.201-1.678.97.186 1.231 1.716 1.38 3.133v.15c.075 1.119.15 2.014-.447 2.872-.56.858-1.716 1.492-2.761 1.492Zm1.642-6.715c-.224 0-.821.784-1.269 1.343l-.037.075c-.97 1.231-1.679 2.126-1.492 3.208.037.187.112.784.522 1.045.671.447 2.052 0 2.686-.896.41-.596.373-1.268.261-2.275v-.112c-.224-2.201-.597-2.388-.671-2.388Z"/><path fill="#fff" d="M20.443 22.234c.299-1.567-2.089-2.014-2.425-.448 0 .038-.037.038-.074 0-.299-1.566-2.686-1.119-2.425.448.037.15.112.299.187.448.298.448.671.895 1.007 1.343.335.41.634.82.97 1.156.149.15.373.15.522 0 .336-.373.634-.746.97-1.156a15.73 15.73 0 0 0 1.007-1.343.692.692 0 0 0 .261-.448Z"/></g><defs><clipPath id="a"><path fill="#fff" d="M0 0h36v36H0z"/></clipPath></defs></svg>