<svg width="25" height="24" fill="none" xmlns="http://www.w3.org/2000/svg"><path fill-rule="evenodd" clip-rule="evenodd" d="M5.667 3h14a2 2 0 0 1 2 2v14a2 2 0 0 1-2 2h-14a2 2 0 0 1-2-2V5a2 2 0 0 1 2-2Zm3 15a.5.5 0 0 0 .5-.5v-7a.5.5 0 0 0-.5-.5h-1.5a.5.5 0 0 0-.5.5v7a.5.5 0 0 0 .5.5h1.5Zm-.75-9a1.5 1.5 0 1 1 0-3 1.5 1.5 0 0 1 0 3Zm10.25 9a.5.5 0 0 0 .5-.5v-4.6a3.1 3.1 0 0 0-2.72-3.14 3 3 0 0 0-2.78 1.34v-.6a.5.5 0 0 0-.5-.5h-1.5a.5.5 0 0 0-.5.5v7a.5.5 0 0 0 .5.5h1.5a.5.5 0 0 0 .5-.5v-3.75a1.5 1.5 0 0 1 3 0v3.75a.5.5 0 0 0 .5.5h1.5Z" fill="#0A0103"/></svg>