<svg width="193" height="66" fill="none" xmlns="http://www.w3.org/2000/svg"><g fill="#0A0103"><path d="M63.376 45.317c-1.35 0-2.438-.26-3.308-.778-.87-.519-1.48-1.21-1.915-2.117-.436-.908-.653-1.902-.697-3.069 0-.605-.043-1.253-.043-1.945 0-.691 0-1.34.043-1.988.044-1.167.261-2.16.697-3.068.435-.908 1.044-1.6 1.915-2.118.87-.519 1.959-.778 3.308-.778 1.045 0 1.959.13 2.699.432.74.303 1.349.692 1.828 1.167.478.476.827.994 1.044 1.556.218.562.349 1.08.392 1.642 0 .13-.043.26-.13.303a.496.496 0 0 1-.349.13h-.435c-.13 0-.218-.044-.305-.087-.087-.086-.13-.173-.174-.346-.261-1.296-.827-2.204-1.567-2.68-.783-.475-1.74-.734-2.96-.734-1.349 0-2.437.389-3.22 1.124-.784.778-1.22 1.988-1.263 3.63a52.808 52.808 0 0 0 0 3.717c.044 1.642.479 2.852 1.262 3.63.784.778 1.872 1.124 3.221 1.124 1.176 0 2.177-.26 2.96-.735.784-.475 1.306-1.383 1.567-2.68.044-.172.087-.302.174-.345.087-.087.174-.087.305-.087h.435c.13 0 .261.044.349.13a.39.39 0 0 1 .13.303 5.982 5.982 0 0 1-.392 1.642 4.462 4.462 0 0 1-1.044 1.556c-.48.475-1.089.864-1.829 1.167-.74.172-1.653.302-2.698.302ZM77.827 45.317c-1.219 0-2.263-.216-3.134-.648-.87-.432-1.524-1.124-1.959-1.988-.479-.908-.696-2.031-.74-3.414 0-.649-.043-1.297-.043-1.859s0-1.21.043-1.858c.044-1.383.305-2.507.784-3.414.478-.908 1.175-1.556 2.045-2.032.871-.432 1.872-.648 3.047-.648 1.176 0 2.177.216 3.047.648.87.433 1.567 1.124 2.046 2.032.479.907.74 2.03.784 3.414.043.648.043 1.296.043 1.858s0 1.21-.043 1.859c-.044 1.383-.262 2.506-.74 3.414-.48.907-1.132 1.556-2.003 1.988-.914.432-1.958.648-3.177.648Zm0-1.297c1.262 0 2.307-.388 3.134-1.166.827-.778 1.262-1.988 1.306-3.717.043-.648.043-1.253.043-1.729 0-.518 0-1.08-.043-1.729-.044-1.166-.261-2.074-.653-2.809-.392-.734-.914-1.253-1.567-1.556-.653-.345-1.393-.475-2.264-.475-.827 0-1.567.173-2.22.475-.653.346-1.175.865-1.567 1.556-.391.735-.609 1.643-.652 2.81 0 .648-.044 1.253-.044 1.728 0 .519 0 1.08.044 1.729.043 1.729.522 2.982 1.349 3.717.827.778 1.872 1.166 3.134 1.166ZM87.751 45.101a.497.497 0 0 1-.348-.13.49.49 0 0 1-.13-.345V30.19c0-.173.043-.302.13-.389a.497.497 0 0 1 .348-.13h5.18c1.567 0 2.786.39 3.7 1.124.914.735 1.393 1.858 1.393 3.371 0 1.167-.305 2.118-.87 2.81-.61.69-1.394 1.166-2.482 1.425l3.57 6.05a.61.61 0 0 1 .086.26c0 .13-.043.216-.13.303a.396.396 0 0 1-.305.13h-.261c-.218 0-.435-.044-.522-.173-.131-.13-.218-.26-.305-.39l-3.526-5.92h-4.57v6.05c0 .13-.044.26-.13.346-.088.086-.218.13-.392.13h-.436V45.1Zm.914-7.865H92.8c1.306 0 2.264-.26 2.873-.778.61-.519.958-1.297.958-2.334 0-1.037-.305-1.815-.958-2.334-.61-.519-1.567-.778-2.873-.778h-4.135v6.224ZM106.816 45.317c-1.262 0-2.35-.259-3.221-.734a4.54 4.54 0 0 1-1.958-2.075c-.436-.864-.697-1.901-.74-3.025 0-.648-.044-1.34-.044-2.075 0-.734 0-1.426.044-2.074.043-1.167.304-2.161.74-3.069.435-.864 1.131-1.555 2.002-2.03.87-.476 1.959-.735 3.221-.735 1.001 0 1.915.13 2.611.432a5.99 5.99 0 0 1 1.785 1.123c.479.433.784.908 1.001 1.34.218.475.348.821.348 1.167 0 .13-.043.26-.13.303a.496.496 0 0 1-.348.13h-.479c-.131 0-.218-.044-.305-.087-.043-.087-.13-.173-.174-.346-.131-.475-.392-.908-.74-1.296-.348-.433-.827-.778-1.393-1.038-.566-.26-1.306-.389-2.22-.389-1.306 0-2.394.346-3.221 1.08-.827.735-1.262 1.902-1.306 3.545a61.293 61.293 0 0 0 0 3.976c.044 1.642.479 2.852 1.306 3.544.827.734 1.872 1.08 3.221 1.08a5.85 5.85 0 0 0 2.351-.475c.696-.346 1.262-.822 1.654-1.513.392-.691.609-1.556.609-2.593v-1.124h-3.874a.497.497 0 0 1-.348-.13.49.49 0 0 1-.131-.345v-.303c0-.173.044-.302.131-.389a.497.497 0 0 1 .348-.13h4.745c.174 0 .304.044.391.13.088.087.131.216.131.39v1.944c0 1.167-.218 2.204-.696 3.112-.479.907-1.132 1.599-2.046 2.074a9.149 9.149 0 0 1-3.265.605ZM116.741 45.101a.498.498 0 0 1-.349-.13.489.489 0 0 1-.13-.345V30.148c0-.13.043-.26.13-.346a.498.498 0 0 1 .349-.13h.435c.13 0 .261.044.348.13a.49.49 0 0 1 .131.346v14.478a.49.49 0 0 1-.131.346.497.497 0 0 1-.348.13h-.435ZM122.312 45.101a.495.495 0 0 1-.348-.13.49.49 0 0 1-.131-.345V30.19c0-.173.044-.302.131-.389a.495.495 0 0 1 .348-.13h8.575c.174 0 .304.044.391.13.087.087.131.216.131.389v.346a.49.49 0 0 1-.131.346c-.087.086-.217.13-.391.13h-7.661v5.92h7.225c.175 0 .305.043.392.13.087.086.131.216.131.389v.345a.49.49 0 0 1-.131.346c-.087.087-.217.13-.392.13h-7.225v6.396a.49.49 0 0 1-.131.346c-.087.086-.217.13-.391.13h-.392V45.1ZM140.071 45.317c-1.219 0-2.22-.216-3.091-.648-.87-.432-1.523-1.124-1.958-2.031-.479-.908-.697-2.075-.697-3.5V30.19c0-.173.044-.302.131-.389a.495.495 0 0 1 .348-.13h.392c.174 0 .304.044.391.13.088.087.131.216.131.389v9.033c0 1.642.392 2.852 1.175 3.63.784.778 1.828 1.167 3.178 1.167 1.306 0 2.35-.39 3.134-1.167.783-.778 1.175-1.988 1.175-3.63V30.19c0-.173.044-.302.131-.389a.495.495 0 0 1 .348-.13h.392c.13 0 .261.044.348.13.087.087.13.216.13.389v8.946c0 1.426-.217 2.593-.696 3.5-.435.908-1.088 1.6-1.959 2.032-.74.432-1.784.648-3.003.648ZM150.344 45.101a.497.497 0 0 1-.349-.13.488.488 0 0 1-.13-.345V30.19c0-.173.043-.303.13-.39a.497.497 0 0 1 .349-.129h.565c.131 0 .262.043.349.13.087.086.13.13.13.173l5.049 9.767 5.05-9.81c.043-.044.087-.087.13-.173a.396.396 0 0 1 .305-.13h.522c.174 0 .305.043.392.13.087.086.13.216.13.389v14.434c0 .13-.043.26-.13.346-.087.087-.218.13-.392.13h-.392a.497.497 0 0 1-.348-.13.488.488 0 0 1-.13-.346V32.654l-4.223 8.298a.667.667 0 0 1-.261.346.737.737 0 0 1-.435.13h-.479a.74.74 0 0 1-.435-.13 1.194 1.194 0 0 1-.261-.346l-4.222-8.298v11.972a.49.49 0 0 1-.131.345.496.496 0 0 1-.348.13h-.435ZM167.667 45.101a.497.497 0 0 1-.348-.13.49.49 0 0 1-.131-.345V30.19c0-.173.044-.302.131-.389a.497.497 0 0 1 .348-.13h8.662c.174 0 .305.044.392.13.087.087.131.216.131.389v.346a.49.49 0 0 1-.131.346c-.087.086-.218.13-.392.13h-7.748v5.617h7.269c.175 0 .305.044.392.13.087.087.131.216.131.39v.345a.49.49 0 0 1-.131.346c-.087.086-.217.13-.392.13h-7.269v5.834h7.922c.174 0 .305.043.392.13.087.086.131.215.131.388v.346a.49.49 0 0 1-.131.346c-.087.086-.218.13-.392.13h-8.836V45.1Z"/></g><path d="M48.881 38.834c-2.22-3.068-4.44-6.093-6.66-9.162-1.61-1.858-2.567-3.587-3.438-4.71-1.959-2.594-3.874-5.23-5.833-7.823-.13-.173-.348-.173-.478 0-1.96 2.593-3.874 5.23-5.833 7.822-1.132 1.556-2.307 3.155-3.439 4.711-2.22 3.069-4.44 6.094-6.66 9.162-.086.13-.086.303.044.39 1.872 1.815 3.918 3.975 5.833 5.79 4.614 4.841 12.666 5.619 18.238 1.945 3.047-2.074 5.528-5.229 8.226-7.736.087-.086.087-.259 0-.389Z" fill="#D82938"/><path d="M40.393 34.902c1.48-2.291 2.394-7.52.305-9.638a.96.96 0 0 0-1.045-.26c-1.306.39-2.437 1.989-3.003 3.156-.566 1.166-.653 2.636-1.132 3.803-.566 1.037-1.828.691-2.786.778-.957-.087-2.176.259-2.785-.778-.48-1.167-.566-2.637-1.132-3.803-.566-1.21-1.741-2.81-3.09-3.155-.349-.087-.74 0-.958.259-1.654 1.556-1.35 5.056-.784 7.217.349 1.73 2.177 3.198.827 4.884-1.436 1.685-1.349 4.063-.827 6.05a11.247 11.247 0 0 0 1.741 3.76c4.18 2.378 9.838 2.378 14.016 0 1.175-1.599 2.264-4.58 2.002-6.871.044-2.593-2.393-3.155-1.349-5.402Z" fill="#FEA048"/><path d="M28.25 32.179c-.35.562-.74 1.037-1.22 1.21a.833.833 0 0 1-.827-.216c-1.175-1.253-1.436-2.982-1.828-4.668-.26 1.383.523 6.483 2.83 5.316.435-.302.783-.778 1.044-1.642Z" fill="#0A0103"/><path d="M26.987 27.036c-.436-.562-1.088-1.426-1.654-1.253-.697.173-.827 1.685-.914 2.29 0 .173-.044.303-.044.476.348 1.685.653 3.37 1.828 4.624.218.216.523.346.827.216.479-.173.87-.648 1.175-1.21.175-.475.218-.864.262-.908.304-1.944-.915-3.5-1.48-4.235Z" fill="#fff"/><path d="M39.827 33.519c1.306-1.815 1.306-3.025 1.263-5.057-.349 1.556-.697 3.544-1.829 4.711-.217.216-.522.303-.783.216-.479-.13-.827-.605-1.219-1.21.305 1.426 1.524 2.464 2.568 1.34Z" fill="#0A0103"/><path d="M38.434 33.39c.305.085.61 0 .784-.217 1.131-1.124 1.523-3.112 1.828-4.624 0-.173 0-.303-.044-.476-.043-.605-.217-2.117-.914-2.29-.566-.13-1.218.691-1.654 1.253-.566.691-1.784 2.29-1.48 4.279 0 .043.087.432.262.907.391.605.74 1.037 1.218 1.167ZM38.522 46.83c-.435-.087-.61-.605-.261-.951 1.74-1.729 3.569-4.235 2.306-6.656-.435-.777-1.262-1.642-2.089-1.512-.392.086-.74.475-1.436 1.296-.566.649-.74 1.038-1.045.994-.304-.043-.261-.475-.783-.82-.523-.39-.914-.13-1.176-.433-.174-.216-.043-.648.218-1.47.218-1.21 1.132-1.512 2.176-1.426-.348-.086-.827-.259-1.175-.777-.13-.087-.304-.951-.566-1.21-.566-.433-1.306-.174-1.958-.26-.697.087-1.48-.216-2.046.303-.479 1.037-.523 1.599-1.698 1.901 1.045-.086 1.959.216 2.177 1.426.174.735.391.994.217 1.47-.217.302-.61.086-1.175.432-.479.346-.479.778-.784.821-.478.087-1.871-2.334-2.48-2.29-1.611-.13-2.83 2.463-2.438 3.846.174 1.599 1.436 3.155 2.655 4.322.305.302.174.864-.261.95-.392.087-.74.26-.914.52a14.348 14.348 0 0 0 6.66 1.642c3.177 0 5.571-1.038 6.703-1.643-.087-.26-.435-.432-.827-.475Z" fill="#fff"/><path d="M37.129 39.699c-.392.086-.566.346-.61.432-.043.043-.087.173-.174.39-.304.82-.391.95-.478 1.08-.044.043-.174.259-.392.475-.218.216-.61.605-1.175.648-.436.044-.914-.173-1.306-.216h-.522c-.392.043-.871.26-1.306.216-.566-.043-1.002-.432-1.176-.648-.087-.087-.217-.26-.391-.475-.262-.39-.218-.519-.48-1.08-.086-.174-.217-.433-.521-.65a2.49 2.49 0 0 0-.305-.172.966.966 0 0 0-.653.043.599.599 0 0 0-.174.13c.13 0 .348 0 .566.086.26.173.391.433.522.778.305.735.522 1.297.914 1.729.174.216.392.389.61.519.217.13.391.172.522.216.522.691.435 1.555.957 1.944.087.087.48.217.915.26h.522c.435-.044.783-.173.914-.26.522-.432.435-1.253.957-1.944.131-.044.305-.087.523-.216.261-.13.435-.303.61-.52.39-.474.609-.993.913-1.728.218-.518.305-.691.523-.778a.69.69 0 0 1 .565-.086.598.598 0 0 0-.174-.13c-.348-.13-.61-.086-.696-.043Z" fill="#0A0103"/><path d="M33.995 43.33c-.174-.044-.392-.044-.566-.087-.13-.044-.305-.087-.435-.13a.897.897 0 0 0-.48 0c-.13.043-.304.086-.434.13-.218.043-.392.086-.566.086.13.432.304.821.435 1.253.174.173.479.26.827.26s.653-.087.827-.26c.087-.389.261-.82.392-1.253Z" fill="#FD7B7B"/><path d="M34.213 40.736c-.044-.518-.349-.864-.48-.95-.26-.044-.608-.13-1-.13s-.74.043-1.001.13c-.13.086-.436.432-.48.95-.043.692.523 1.254 1.089 1.426.348.087.653.044.783 0 .61-.13 1.132-.734 1.089-1.426Z" fill="#0A0103"/><g fill="#0A0103"><path d="M36.563 36.803c-.435-.216-.87-.086-1.044-.043 0 0-.827.26-1.132 1.167-.044.086-.13.345-.044.432.044.043.131 0 .305 0 .392-.043.479.216 1.001.216.087 0 .218 0 .392-.043.044 0 .261-.087.479-.26.26-.259.566-.734.391-1.123-.13-.216-.26-.303-.348-.346ZM28.902 36.803c.436-.216.87-.086 1.045-.043 0 0 .827.26 1.132 1.167.043.086.13.345.043.432-.043.043-.13 0-.304 0-.392-.043-.48.216-1.002.216-.087 0-.217 0-.391-.043-.044 0-.262-.087-.48-.26-.26-.259-.565-.734-.39-1.123.13-.216.26-.303.347-.346Z"/></g><g fill="#fff"><path d="M34.213 25.436h-3.004c-1.262.649-1.697 1.384-1.48 3.199.044.518.262 1.037.436 1.599.174.734.087 1.858 1.131 1.858 4.31-.086 3.309.735 4.44-3.414.174-1.858-.261-2.636-1.523-3.242ZM34.3 22.93s-3.178-.043-3.178 0v1.815c0 .043 3.178.043 3.221 0 0-.605 0-1.21-.043-1.815Z"/></g><path d="M49.36 39.266c.13-.13.13-.302.044-.389l-6.878-9.464c0-1.513-.653-6.526-3.526-4.84-2.002-2.68-4.004-5.36-6.006-8.082a.328.328 0 0 0-.523 0c-2.002 2.679-4.004 5.358-6.006 8.081-2.873-1.685-3.526 3.328-3.526 4.84l-6.877 9.465c-.087.13-.087.303.043.39 1.915 1.858 4.048 4.105 6.007 5.963C26.9 50.2 35.17 51.023 40.916 47.22c3.134-2.118 5.702-5.36 8.444-7.953Zm-9.62 7.91c-4.222 2.42-9.793 2.376-14.015 0-.61-.908-1.22-2.118-1.654-3.458-.48-1.815-.697-3.976.304-5.748.392-.519.958-1.167.958-1.815.13-1.21-1.045-2.29-1.262-3.458-.653-2.031-.697-4.667.13-6.655.87-2.118 2.568-.692 3.613.475 1.045 1.167 1.393 2.593 1.785 4.063.174 1.123.304 1.944 1.61 2.16.87.044 2.264.044 3.134 0 1.262-.172 1.393-1.037 1.61-2.16.305-.865.436-1.772.828-2.593.74-1.47 3.395-4.668 4.57-1.902 1.088 2.852.653 6.31-.87 8.903-1.089 1.945 1.305 2.982 1.349 5.056.217 2.507-.784 5.23-2.09 7.131Zm-23.025-8.169 6.224-8.557c.13 1.685.74 3.37 1.567 4.84.522.865-.218 1.686-.697 2.377-1.523 2.896-.696 6.008.653 8.774-2.132-1.556-5.789-5.619-7.747-7.434Zm21.763-14.089a7.035 7.035 0 0 0-2.09 2.29c-.217-1.08-.652-1.642-1.479-2.16.174-.476.044-1.902.087-2.075a.667.667 0 0 0-.653-.648h-3.177c-.262 0-.523.173-.61.389-.087.389-.13 1.642 0 2.334-.827.518-1.262 1.08-1.48 2.16-.522-.907-1.262-1.685-2.089-2.29l5.659-7.78a.133.133 0 0 1 .174 0l5.658 7.78Zm-3.047 4.884c-.392.778-.13 2.29-1.35 2.247h-2.785c-1 .043-1-1.124-1.175-1.858-.218-.519-.261-.951-.435-1.6-.174-1.642.13-2.55 1.48-3.198h3.003c1.35.649 1.698 1.6 1.48 3.199-.044.475-.13.864-.218 1.21Zm-1.088-6.829v1.815h-3.22v-1.815h3.22Zm8.575 21.825a14.054 14.054 0 0 1-1.959 1.643c1.393-2.723 2.177-5.878.653-8.774-.348-.475-.827-1.037-.87-1.599-.044-.259.043-.561.217-.82.827-1.427 1.437-3.113 1.567-4.755l6.225 8.557c-.697.649-5.05 4.97-5.833 5.748Z" fill="#0A0103"/></svg>