<svg xmlns="http://www.w3.org/2000/svg" width="30" height="19" fill="none"><g fill-rule="evenodd" clip-rule="evenodd"><path fill="#ED0006" d="M14.905 16.44a9.07 9.07 0 0 1-5.864 2.133c-4.993 0-9.041-4-9.041-8.933C0 4.706 4.048.707 9.04.707a9.07 9.07 0 0 1 5.865 2.134A9.07 9.07 0 0 1 20.77.707c4.993 0 9.04 4 9.04 8.933 0 4.934-4.047 8.933-9.04 8.933a9.07 9.07 0 0 1-5.865-2.134Z"/><path fill="#F9A000" d="M14.905 16.44a8.87 8.87 0 0 0 3.177-6.8 8.87 8.87 0 0 0-3.177-6.8A9.07 9.07 0 0 1 20.77.708c4.993 0 9.04 4 9.04 8.933 0 4.934-4.047 8.933-9.04 8.933a9.07 9.07 0 0 1-5.865-2.134Z"/><path fill="#FF5E00" d="M14.905 16.44a8.87 8.87 0 0 0 3.177-6.8 8.87 8.87 0 0 0-3.177-6.8 8.87 8.87 0 0 0-3.176 6.8 8.87 8.87 0 0 0 3.176 6.8Z"/></g></svg>