<svg xmlns="http://www.w3.org/2000/svg" width="46" height="32" fill="none"><rect width="45" height="31" x=".5" y=".5" fill="#fff" rx="5.5"/><path fill="#172B85" fill-rule="evenodd" d="M14.334 21.144h-2.747l-2.059-8.088c-.098-.372-.305-.7-.61-.856a8.764 8.764 0 0 0-2.518-.856v-.311h4.424c.61 0 1.069.468 1.145 1.011l1.069 5.834 2.745-6.845h2.67l-4.12 10.111Zm5.645 0h-2.594l2.136-10.111h2.594l-2.136 10.111Zm5.491-7.31c.077-.544.535-.856 1.069-.856a4.713 4.713 0 0 1 2.517.466l.458-2.176a6.4 6.4 0 0 0-2.365-.468c-2.517 0-4.349 1.4-4.349 3.344 0 1.479 1.298 2.255 2.214 2.723.99.466 1.372.778 1.296 1.244 0 .7-.763 1.011-1.525 1.011-.916 0-1.832-.233-2.67-.623l-.458 2.179c.916.388 1.907.544 2.822.544 2.823.077 4.577-1.322 4.577-3.422 0-2.645-3.586-2.8-3.586-3.966Zm12.663 7.31-2.059-10.111h-2.212a1.15 1.15 0 0 0-1.069.778l-3.813 9.333h2.67l.533-1.477h3.28l.306 1.477h2.364Zm-3.89-7.388.762 3.81H32.87l1.373-3.81Z" clip-rule="evenodd"/><rect width="45" height="31" x=".5" y=".5" stroke="#F9FAFB" rx="5.5"/></svg>