<svg width="50" height="50" viewBox="0 0 50 50" fill="none" xmlns="http://www.w3.org/2000/svg">
<rect width="50" height="50" rx="25" fill="#F2D8C0"/>
<path fill-rule="evenodd" clip-rule="evenodd" d="M33.8216 10.0286C34.5809 8.67274 36.5288 8.66291 37.3017 10.011L40.8675 16.2305C41.045 16.54 41.0441 16.9205 40.8653 17.2292C40.6864 17.5378 40.3567 17.7279 40 17.7279H38.0548V39.7726C38.0548 40.3248 37.6071 40.7726 37.0548 40.7726C36.5025 40.7726 36.0548 40.3248 36.0548 39.7726V16.7279C36.0548 16.1756 36.5025 15.7279 37.0548 15.7279H38.274L35.5666 11.0058L32.9223 15.7279H34.1097C34.6619 15.7279 35.1097 16.1756 35.1097 16.7279V17.0379C35.1097 30.1462 24.4833 40.7726 11.375 40.7726C10.8227 40.7726 10.375 40.3248 10.375 39.7726C10.375 39.2203 10.8227 38.7726 11.375 38.7726C23.1479 38.7726 32.7345 29.4123 33.0989 17.7279H31.2162C30.8612 17.7279 30.5329 17.5397 30.3534 17.2335C30.174 16.9273 30.1702 16.5489 30.3436 16.2393L33.8216 10.0286Z" fill="black"/>
<path d="M27.3894 23.0346L29.1635 26.6269C29.3003 26.9006 29.5607 27.0948 29.8652 27.1389L33.8284 27.717C34.5918 27.8274 34.8964 28.7674 34.3447 29.3058L31.4761 32.0994C31.2554 32.3156 31.1583 32.6202 31.2069 32.9247L31.8821 36.8745C32.0145 37.6336 31.2157 38.2162 30.5316 37.8587L26.9878 35.9963C26.7142 35.8551 26.392 35.8551 26.1184 35.9963L22.5745 37.8587C21.8905 38.2162 21.0917 37.638 21.2241 36.8745L21.8993 32.9247C21.9523 32.6246 21.8508 32.3156 21.6301 32.0994L18.7615 29.3058C18.2098 28.7674 18.5143 27.8274 19.2778 27.717L23.2409 27.1389C23.5455 27.0948 23.8058 26.905 23.9427 26.6269L25.7168 23.0346C26.0566 22.3417 27.0452 22.3417 27.3894 23.0346Z" fill="#F2A35A"/>
</svg>
