<svg width="50" height="50" viewBox="0 0 50 50" fill="none" xmlns="http://www.w3.org/2000/svg">
<rect width="50" height="50" rx="25" fill="#F2D8C0"/>
<g clip-path="url(#clip0_17_684)">
<path d="M17.1946 8.4053H25.2275C26.36 8.4053 27.2741 9.32751 27.2741 10.452V18.1127H15.1479V10.452C15.1479 9.31942 16.0702 8.4053 17.1946 8.4053Z" fill="#F2D8C0"/>
<path d="M27.2822 18.1127H15.1479V37.1455C15.1479 38.2501 16.0434 39.1455 17.1479 39.1455H25.2822C26.3868 39.1455 27.2822 38.2501 27.2822 37.1455V18.1127Z" fill="#F2D8C0"/>
<path fill-rule="evenodd" clip-rule="evenodd" d="M16.1479 10.452C16.1479 9.87428 16.6199 9.4053 17.1946 9.4053H25.2275C25.8052 9.4053 26.2741 9.87722 26.2741 10.452V17.1127H16.1479V10.452ZM17.1946 7.4053C15.5204 7.4053 14.1479 8.76456 14.1479 10.452V18.1127V37.1455C14.1479 38.8023 15.4911 40.1455 17.1479 40.1455H25.2822C26.9391 40.1455 28.2822 38.8023 28.2822 37.1455V18.1127C28.2822 18.0694 28.2795 18.0268 28.2741 17.9849V10.452C28.2741 8.7778 26.9149 7.4053 25.2275 7.4053H17.1946ZM16.1479 37.1455V19.1127H26.2822V37.1455C26.2822 37.6978 25.8345 38.1455 25.2822 38.1455H17.1479C16.5957 38.1455 16.1479 37.6978 16.1479 37.1455Z" fill="black"/>
<path d="M20.5437 22.1575C24.0707 18.3878 29.7577 12.8222 31.78 14.0679C32.5971 14.5695 33.3656 16.5029 33.1795 18.2583C33.1472 18.5738 33.0663 19.1563 32.7427 19.8034C32.0389 21.211 30.599 22.1656 28.9406 22.1656H20.5437V22.1575Z" fill="#F2A35A" stroke="black" stroke-width="2" stroke-linecap="round" stroke-linejoin="round"/>
<path d="M21.8865 22.1575C18.3514 18.3878 12.6725 12.8222 10.6421 14.0679C9.82503 14.5695 9.05652 16.5029 9.24258 18.2583C9.27494 18.5738 9.35583 19.1563 9.67941 19.8034C10.3832 21.211 11.8231 22.1656 13.4815 22.1656H21.8784L21.8865 22.1575Z" fill="#F2A35A" stroke="#F2A35A" stroke-width="2" stroke-linecap="round" stroke-linejoin="round"/>
<path d="M24.4509 17.3038H17.9792V22.1575H24.4509V17.3038Z" fill="#F2A35A" stroke="#F2A35A" stroke-width="2" stroke-linecap="round" stroke-linejoin="round"/>
</g>
<g clip-path="url(#clip1_17_684)">
<path d="M24.7645 12.8546H32.7974C33.93 12.8546 34.8441 13.7768 34.8441 14.9012V21.753H22.7179V14.9012C22.7179 13.7687 23.6401 12.8546 24.7645 12.8546Z" fill="#F2D8C0"/>
<path fill-rule="evenodd" clip-rule="evenodd" d="M24.7645 13.8546C24.1898 13.8546 23.7179 14.3235 23.7179 14.9012V20.753H33.8441V14.9012C33.8441 14.3265 33.3751 13.8546 32.7974 13.8546H24.7645ZM21.7179 14.9012C21.7179 13.2138 23.0904 11.8546 24.7645 11.8546H32.7974C34.4848 11.8546 35.8441 13.227 35.8441 14.9012V21.753C35.8441 22.3053 35.3964 22.753 34.8441 22.753H22.7179C22.1656 22.753 21.7179 22.3053 21.7179 21.753V14.9012Z" fill="black"/>
<path d="M34.8522 21.753H22.7179V41.5947C22.7179 42.6993 23.6133 43.5947 24.7179 43.5947H32.8522C33.9567 43.5947 34.8522 42.6993 34.8522 41.5947V21.753Z" fill="#F2D8C0"/>
<path fill-rule="evenodd" clip-rule="evenodd" d="M21.7179 21.753C21.7179 21.2007 22.1656 20.753 22.7179 20.753H34.8522C35.4045 20.753 35.8522 21.2007 35.8522 21.753V41.5947C35.8522 43.2516 34.509 44.5947 32.8522 44.5947H24.7179C23.061 44.5947 21.7179 43.2516 21.7179 41.5947V21.753ZM23.7179 22.753V41.5947C23.7179 42.147 24.1656 42.5947 24.7179 42.5947H32.8522C33.4045 42.5947 33.8522 42.147 33.8522 41.5947V22.753H23.7179Z" fill="black"/>
<path d="M28.1136 26.6068C31.6407 22.837 37.3276 17.2714 39.35 18.5172C40.167 19.0188 40.9355 20.9522 40.7495 22.7076C40.7171 23.0231 40.6362 23.6055 40.3126 24.2527C39.6089 25.6603 38.1689 26.6148 36.5106 26.6148H28.1136V26.6068Z" fill="#F2A35A"/>
<path fill-rule="evenodd" clip-rule="evenodd" d="M34.924 21.4594C33.4495 22.6492 31.8695 24.1623 30.4463 25.6148H36.5106C37.7737 25.6148 38.8764 24.8892 39.4182 23.8055C39.6642 23.3135 39.7278 22.8677 39.7547 22.6056L39.755 22.6022C39.8301 21.8944 39.7122 21.1226 39.4832 20.4759C39.2363 19.7785 38.9392 19.4384 38.8268 19.3695L38.8255 19.3686C38.7906 19.3471 38.4981 19.2423 37.6585 19.6324C36.8955 19.9869 35.9591 20.6243 34.924 21.4594ZM39.8738 17.6654C38.8977 17.0646 37.7213 17.3979 36.8157 17.8186C35.8334 18.2751 34.7485 19.0312 33.6681 19.9029C31.4964 21.6552 29.1542 24.0309 27.3834 25.9235C27.2101 26.1088 27.1136 26.353 27.1136 26.6067V26.6148C27.1136 27.1671 27.5614 27.6148 28.1136 27.6148H36.5106C38.5641 27.6148 40.3414 26.4313 41.2071 24.6999C41.6077 23.8987 41.7062 23.1805 41.7441 22.8112C41.8547 21.7641 41.6814 20.6922 41.3686 19.8085C41.0736 18.9752 40.5782 18.0981 39.8738 17.6654Z" fill="black"/>
<path d="M29.4564 26.6068C25.9213 22.837 20.2425 17.2714 18.212 18.5172C17.395 19.0188 16.6265 20.9522 16.8125 22.7076C16.8449 23.0231 16.9258 23.6055 17.2494 24.2527C17.9531 25.6603 19.3931 26.6148 21.0514 26.6148H29.4484L29.4564 26.6068Z" fill="#F2A35A"/>
<path fill-rule="evenodd" clip-rule="evenodd" d="M23.898 19.9029C26.0696 21.6552 28.4118 24.0308 30.1859 25.9227C30.5551 26.3164 30.5453 26.9322 30.1636 27.3138L30.1555 27.3219C29.9679 27.5095 29.7136 27.6148 29.4484 27.6148H21.0514C18.9979 27.6148 17.2207 26.4313 16.3549 24.6999C15.9544 23.8988 15.8559 23.1806 15.8179 22.8113C15.7073 21.7642 15.8806 20.6922 16.1934 19.8085C16.4886 18.9749 16.9842 18.0976 17.6889 17.665L17.6891 17.6649C18.6663 17.0653 19.8423 17.3972 20.7496 17.8185C21.7326 18.275 22.8176 19.0312 23.898 19.9029ZM18.735 19.3696C18.6225 19.4388 18.3255 19.7789 18.0788 20.4759C17.8498 21.1226 17.7319 21.8944 17.807 22.6022L17.8073 22.6056C17.8342 22.8677 17.8978 23.3135 18.1438 23.8055C18.6857 24.8892 19.7883 25.6148 21.0514 25.6148H27.1213C25.6964 24.1621 24.1165 22.6491 22.642 21.4594C21.607 20.6242 20.6706 19.987 19.9073 19.6325C19.0683 19.2429 18.773 19.3462 18.735 19.3696Z" fill="black"/>
<path d="M32.0208 21.753H25.5492V26.6067H32.0208V21.753Z" fill="#F2A35A" stroke="#F2A35A" stroke-width="2" stroke-linecap="round" stroke-linejoin="round"/>
<path fill-rule="evenodd" clip-rule="evenodd" d="M24.5492 21.753C24.5492 21.2007 24.9969 20.753 25.5492 20.753H32.0208C32.5731 20.753 33.0208 21.2007 33.0208 21.753V26.6067C33.0208 27.159 32.5731 27.6067 32.0208 27.6067H25.5492C24.9969 27.6067 24.5492 27.159 24.5492 26.6067V21.753ZM26.5492 22.753V25.6067H31.0208V22.753H26.5492Z" fill="black"/>
</g>
<defs>
<clipPath id="clip0_17_684">
<rect width="26.4689" height="33.167" fill="white" transform="translate(7.98059 7.19186)"/>
</clipPath>
<clipPath id="clip1_17_684">
<rect width="26.4689" height="33.167" fill="white" transform="translate(15.5505 11.6411)"/>
</clipPath>
</defs>
</svg>
