<svg width="25" height="24" fill="none" xmlns="http://www.w3.org/2000/svg"><path d="M21.64 6.717a7.19 7.19 0 0 1-1.663 1.6v.495a10.972 10.972 0 0 1-3.259 7.822A10.96 10.96 0 0 1 8.86 19.8a10.994 10.994 0 0 1-4.897-1.133.225.225 0 0 1-.135-.207v-.099c0-.129.105-.233.234-.233a7.96 7.96 0 0 0 4.6-1.655 3.927 3.927 0 0 1-3.495-2.301.234.234 0 0 1 .234-.324c.459.046.923.004 1.366-.126a3.92 3.92 0 0 1-3.1-3.425.234.234 0 0 1 .323-.234c.447.197.93.302 1.42.306a3.849 3.849 0 0 1-1.537-4.442.485.485 0 0 1 .818-.162 11.105 11.105 0 0 0 7.557 3.489 3.604 3.604 0 0 1-.107-.9A3.917 3.917 0 0 1 18.89 5.71a7.807 7.807 0 0 0 2.147-.746c.05-.03.112-.03.162 0 .03.05.03.113 0 .162a3.928 3.928 0 0 1-1.582 1.798 7.709 7.709 0 0 0 1.798-.431.144.144 0 0 1 .161 0 .153.153 0 0 1 .063.224Z" fill="#0A0103"/></svg>