<svg xmlns="http://www.w3.org/2000/svg" width="48" height="48" fill="none"><g clip-path="url(#a)"><path fill="#D82938" d="M24 45.24c12.358 0 22.376-10.019 22.376-22.377C46.376 10.505 36.358.487 24 .487S1.624 10.505 1.624 22.863 11.642 45.24 24 45.24Z"/><path fill="#0C0103" d="M24 45.727c-12.6 0-22.863-10.263-22.863-22.864C1.137 10.263 11.399 0 24 0c12.6 0 22.863 10.262 22.863 22.863 0 12.601-10.262 22.864-22.863 22.864ZM24 .974c-12.081 0-21.889 9.808-21.889 21.89 0 12.08 9.808 21.888 21.889 21.888s21.89-9.808 21.89-21.889C45.89 10.783 36.08.974 24 .974Z"/><path fill="#D82938" d="M11.854 22.279c3.183 4.936-2.566 4.839-1.397 11.691.455 3.54 1.592 6.56 3.345 8.217 6.236 3.377 14.192 3.377 20.46 0 2.728-2.923 4.807-9.45 2.371-14.16-1.072-1.331-2.078-3.02-1.007-4.677 1.43-2.468 2.274-5.326 2.274-8.021l-4.644-6.43c-5.651 3.767-3.15 11.074-7.113 11.074-3.507-.26-6.527 1.332-6.95-3.508-.779-2.825-1.753-5.813-4.416-7.566l-4.612 6.43c.098 2.598.747 5.293 1.689 6.95Z"/><path fill="#FEA048" d="M35.594 23.35c2.241-3.442 3.605-11.431.455-14.679a1.622 1.622 0 0 0-1.591-.422c-1.982.617-3.703 2.988-4.547 4.806-.845 1.787-.975 3.995-1.689 5.781-.877 1.56-2.76 1.04-4.19 1.17-1.428-.13-3.312.39-4.189-1.17-.714-1.786-.877-3.994-1.689-5.78-.844-1.82-2.63-4.255-4.644-4.807-.52-.162-1.072 0-1.461.39-2.5 2.468-2.079 7.794-1.202 11.042.52 2.63 3.28 4.871 1.267 7.404-2.176 2.533-2.014 6.17-1.267 9.191.585 2.37 1.657 4.32 2.598 5.716 6.333 3.637 14.842 3.637 21.175 0 1.786-2.403 3.442-6.95 3.053-10.425 0-3.995-3.67-4.806-2.079-8.216Z"/><path fill="#fff" d="M32.704 41.44a.845.845 0 0 1-.422-1.43c2.663-2.597 5.358-6.462 3.475-10.132-.65-1.169-1.916-2.533-3.15-2.338-.553.13-1.105.747-2.144 1.981-.844 1.007-1.137 1.559-1.559 1.494-.454-.065-.422-.715-1.169-1.234-.812-.552-1.396-.195-1.754-.65-.26-.357-.065-.974.325-2.24.325-1.852 1.721-2.306 3.28-2.144-.552-.13-1.266-.422-1.786-1.17-.162-.13-.455-1.428-.844-1.818-.877-.682-1.982-.292-2.988-.39-1.04.098-2.241-.324-3.053.455-.714 1.559-.747 2.468-2.533 2.89 1.559-.162 2.988.293 3.28 2.144.292 1.104.617 1.526.325 2.24-.325.488-.942.098-1.754.65-.747.52-.715 1.17-1.17 1.234-.714.098-2.857-3.572-3.734-3.475-2.436-.194-4.287 3.735-3.67 5.879.26 2.403 2.176 4.806 3.995 6.56.487.455.227 1.299-.422 1.429-.585.097-1.105.357-1.397.812 2.826 1.494 6.008 2.306 9.223 2.436h.617c.325 0 .683 0 1.007.032 3.28-.098 6.528-.91 9.386-2.468-.26-.357-.78-.617-1.364-.747Z"/><path fill="#0C0103" d="M27.118 28.514c2.566 1.43 4.482-1.948 2.208-2.468-1.396-.39-3.215 1.429-2.89 2.468.098.098.292-.032.682 0ZM18.317 28.417c.844.714 1.656.422 2.565.097.39-.032.585.098.682 0 .195-.162-.065-.91-.52-1.461-1.233-1.851-4.903-1.072-2.727 1.364ZM22.117 33.516c1.916 2.533 5.715-.488 3.41-2.728.032-.195-2.663-.228-2.76-.098-1.137.422-1.235 1.851-.65 2.826ZM17.213 19.226c-.487.844-1.104 1.591-1.819 1.851-.454.162-.942 0-1.266-.357-1.754-1.949-2.176-4.514-2.76-7.112-.39 2.078.778 9.872 4.253 8.086.715-.422 1.235-1.169 1.592-2.468ZM34.717 21.272c1.949-2.793 1.949-4.612 1.884-7.664-.487 2.338-1.072 5.423-2.793 7.144-.325.325-.78.455-1.202.325-.747-.227-1.266-.91-1.818-1.851.487 2.143 2.338 3.767 3.93 2.046Z"/><path fill="#0C0103" d="M28.612 33.548c-2.371 3.28-3.637.455-5.943 1.559-2.079.617-3.8-1.364-4.222-3.248-.163-1.007-1.657-1.656-2.468-1.007 2.078-.454 1.461 4.482 4.936 5.197 1.072 1.559.422 3.442 3.053 3.312 2.695.13 1.98-1.818 3.117-3.377 3.41-.974 2.598-5.554 4.742-5.132-2.046-1.136-2.533 1.397-3.215 2.696Zm-3.02 3.28c-.228.487-.163.91-.358 1.234-.52.487-1.98.487-2.5 0-.195-.52-.293-1.331-.65-1.883.585-.033 1.17-.228 1.819-.39.714.195 1.364.39 1.98.422-.097.195-.194.39-.291.617Z"/><path fill="#fff" d="M15.329 11.4c-.682-.878-1.656-2.144-2.533-1.917-1.04.26-1.267 2.598-1.364 3.508-.033.26-.033.487-.033.714.553 2.566 1.007 5.099 2.728 7.015.325.357.812.487 1.267.357.714-.227 1.3-.974 1.786-1.819.26-.681.357-1.299.357-1.363.52-3.02-1.364-5.424-2.208-6.496ZM32.606 21.077c.423.13.91 0 1.202-.325 1.689-1.688 2.273-4.709 2.76-7.047 0-.227-.032-.487-.032-.714-.097-.91-.325-3.248-1.364-3.508-.844-.227-1.851 1.04-2.533 1.916-.845 1.072-2.728 3.475-2.209 6.496 0 .097.13.681.358 1.364.584.909 1.104 1.59 1.818 1.818Z"/><path fill="#0C0103" d="M38.744 16.595c0-.52.033-1.039.033-1.558 0-2.306-.974-9.938-5.326-7.373-.26.195-.52.358-.78.553a10.705 10.705 0 0 0-3.182 3.474c-.715 1.235-.975 2.306-1.202 3.086-.52 2.046-.422 3.572-1.429 4.06a1.51 1.51 0 0 1-.78.194H21.89c-.39 0-.584-.097-.714-.162-.975-.455-.942-1.949-1.397-3.8-.227-.974-.52-2.11-1.266-3.41-.91-1.559-1.884-2.598-3.183-3.475-.26-.195-.52-.357-.78-.552-4.351-2.533-5.358 5.066-5.326 7.372 0 .52.033 1.04.033 1.559.195 2.533 1.104 5.131 2.403 7.34.78 1.331-.325 2.565-1.072 3.605-2.305 4.384-1.071 9.158 1.007 13.315.293.552.552 1.104.845 1.624a22.435 22.435 0 0 0 11.496 3.182c5.748.033 9.905-2.176 11.66-3.182.291-.553.551-1.105.844-1.624 2.078-4.157 3.312-8.931 1.006-13.316-.52-.747-1.234-1.558-1.331-2.435-.065-.39.065-.845.292-1.234 1.267-2.176 2.144-4.742 2.338-7.243ZM37.575 31.08c.455 3.864-1.007 8.022-2.988 10.912-6.365 3.637-14.809 3.637-21.142 0a20.089 20.089 0 0 1-2.468-5.229c-.714-2.728-1.04-6.04.455-8.736.617-.812 1.461-1.754 1.429-2.793.195-1.851-1.56-3.442-1.916-5.261-.942-3.085-1.04-7.08.194-10.133 1.332-3.215 3.865-1.039 5.457.682 1.558 1.754 2.078 3.963 2.663 6.17.292 1.69.487 2.989 2.403 3.248 1.331.098 3.377.098 4.741 0 1.917-.26 2.111-1.558 2.404-3.247.422-1.332.65-2.728 1.234-3.962 1.136-2.274 5.098-7.08 6.885-2.89 1.656 4.351 1.006 9.58-1.332 13.542-1.689 2.955 1.949 4.58 1.981 7.697Z"/><path fill="#FD7B7B" d="M23.903 35.789c-.65.195-1.234.357-1.819.39.357.552.455 1.396.65 1.883.52.487 1.98.487 2.5 0 .195-.357.13-.78.357-1.234 0-.032.033-.065.065-.13.033-.162.098-.292.228-.454 0-.033.032-.033.032-.065-.65 0-1.266-.195-2.013-.39Z"/><path fill="#D82938" d="M30.333 40.953a.706.706 0 0 0-1.072-.617l-3.475 2.013h-2.598l-3.475-2.013a.706.706 0 0 0-1.071.617v5.358c0 .552.584.91 1.071.617l3.475-2.013h2.598l3.475 2.013a.706.706 0 0 0 1.072-.617v-5.358Z"/><path fill="#0C0103" d="M29.586 40.238a.7.7 0 0 1 .715.715v5.358a.72.72 0 0 1-.715.715.74.74 0 0 1-.357-.098l-3.475-2.013h-2.598l-3.475 2.013a.741.741 0 0 1-.358.098.7.7 0 0 1-.714-.715v-5.358a.72.72 0 0 1 .714-.715.74.74 0 0 1 .358.098l3.475 2.013h2.598l3.475-2.013a.846.846 0 0 1 .357-.098Zm0-.974c-.292 0-.584.065-.844.227l-3.248 1.884h-2.078l-3.248-1.884a1.573 1.573 0 0 0-.845-.227c-.454 0-.844.162-1.169.487-.324.325-.52.747-.52 1.234v5.359c0 .941.748 1.688 1.69 1.688.292 0 .584-.064.844-.227l3.248-1.883h2.078l3.248 1.883c.26.163.552.227.844.227.942 0 1.689-.746 1.689-1.688v-5.359c.032-.974-.747-1.721-1.689-1.721Z"/><path fill="#D82938" d="M25.981 42.154h-3.02v3.02h3.02v-3.02Z"/><path fill="#0C0103" d="M26.468 45.662h-3.994v-3.995h3.994v3.995Zm-3.02-.975h2.046v-2.046h-2.046v2.046Z"/></g><defs><clipPath id="a"><path fill="#fff" d="M0 0h48v48H0z"/></clipPath></defs></svg>