<svg width="78" height="60" viewBox="0 0 78 60" fill="none" xmlns="http://www.w3.org/2000/svg"><g clip-path="url(#clip0)"><path d="M14.1555 59.7222V55.7526C14.1555 54.2308 13.2292 53.2384 11.6414 53.2384 10.8474 53.2384 9.98731 53.5031 9.39184 54.363 8.92871 53.6353 8.26708 53.2384 7.27464 53.2384 6.61304 53.2384 5.95143 53.437 5.42212 54.1647V53.3706H4.03271V59.7222H5.42212V56.2156C5.42212 55.091 6.01756 54.5616 6.94384 54.5616 7.87012 54.5616 8.33324 55.1571 8.33324 56.2156V59.7222H9.72267V56.2156C9.72267 55.091 10.3843 54.5616 11.2444 54.5616 12.1706 54.5616 12.6338 55.1571 12.6338 56.2156V59.7222H14.1555zM34.732 53.3706H32.4825V51.4519H31.0932V53.3706H29.8361V54.6277H31.0932V57.5388C31.0932 58.9945 31.6883 59.8544 33.2763 59.8544 33.8718 59.8544 34.5334 59.6561 34.9967 59.3914L34.5995 58.2004C34.2026 58.4651 33.7396 58.5312 33.4088 58.5312 32.7472 58.5312 32.4825 58.1343 32.4825 57.4727V54.6277H34.732V53.3706zM46.5087 53.2384C45.7149 53.2384 45.1855 53.6353 44.8547 54.1647V53.3706H43.4654V59.7222H44.8547V56.1495C44.8547 55.091 45.318 54.4955 46.1779 54.4955 46.4426 54.4955 46.7734 54.5616 47.0381 54.6277L47.435 53.3045C47.1703 53.2384 46.7734 53.2384 46.5087 53.2384zM28.7111 53.9C28.0495 53.437 27.1232 53.2384 26.1308 53.2384 24.5429 53.2384 23.4844 54.0322 23.4844 55.2893 23.4844 56.3481 24.2782 56.9433 25.6678 57.1419L26.3294 57.208C27.0571 57.3405 27.454 57.5388 27.454 57.8696 27.454 58.3329 26.9249 58.6637 25.9986 58.6637 25.0723 58.6637 24.3446 58.3329 23.8813 58.0021L23.2197 59.0606C23.9474 59.5901 24.9398 59.8544 25.9325 59.8544 27.7848 59.8544 28.8436 58.9945 28.8436 57.8035 28.8436 56.6789 27.9834 56.0834 26.6602 55.8848L25.9986 55.8187C25.4031 55.7526 24.9398 55.6201 24.9398 55.2232 24.9398 54.7602 25.4031 54.4955 26.1308 54.4955 26.9249 54.4955 27.7187 54.8263 28.1156 55.0246L28.7111 53.9zm36.9186-.6616C64.8356 53.2384 64.3065 53.6353 63.9757 54.1647V53.3706H62.5861V59.7222H63.9757V56.1495C63.9757 55.091 64.4387 54.4955 65.2989 54.4955 65.5633 54.4955 65.8941 54.5616 66.1588 54.6277L66.5561 53.3045C66.2913 53.2384 65.8944 53.2384 65.6297 53.2384zm-17.7314 3.308C47.8983 58.4651 49.2215 59.8544 51.2724 59.8544 52.1987 59.8544 52.8603 59.6561 53.5219 59.1267L52.8603 58.0021C52.3309 58.399 51.8018 58.5976 51.2063 58.5976 50.0814 58.5976 49.2876 57.8035 49.2876 56.5464 49.2876 55.3554 50.0814 54.5616 51.2063 54.4955 51.8018 54.4955 52.3309 54.6938 52.8603 55.091L53.5219 53.9661C52.8603 53.437 52.1987 53.2384 51.2724 53.2384 49.2215 53.2384 47.8983 54.6277 47.8983 56.5464zm12.8352.0V53.3706H59.3442V54.1647C58.8812 53.5692 58.2196 53.2384 57.3594 53.2384 55.5732 53.2384 54.1835 54.6277 54.1835 56.5464 54.1835 58.4651 55.5732 59.8544 57.3594 59.8544 58.2857 59.8544 58.9473 59.5236 59.3442 58.9284V59.7222H60.7335V56.5464zM55.6393 56.5464C55.6393 55.4218 56.367 54.4955 57.558 54.4955 58.6826 54.4955 59.4767 55.3554 59.4767 56.5464 59.4767 57.6713 58.6826 58.5976 57.558 58.5976 56.367 58.5312 55.6393 57.6713 55.6393 56.5464zM39.0324 53.2384C37.1798 53.2384 35.8566 54.5616 35.8566 56.5464c0 1.9848 1.3232 3.308 3.241900000000001 3.308C40.0248 59.8544 40.9511 59.5901 41.6788 58.9945L41.0172 58.0021C40.4881 58.399 39.8265 58.6637 39.1649 58.6637 38.3047 58.6637 37.4445 58.2668 37.2462 57.1419H41.9435V56.6125C42.0096 54.5616 40.8189 53.2384 39.0324 53.2384zM39.0324 54.4294C39.8926 54.4294 40.4881 54.9585 40.6203 55.9509h-3.308C37.4445 55.091 38.04 54.4294 39.0324 54.4294zM73.5029 56.5464V50.8567H72.1136V54.1647C71.6503 53.5692 70.9887 53.2384 70.1288 53.2384 68.3423 53.2384 66.9529 54.6277 66.9529 56.5464 66.9529 58.4651 68.3423 59.8544 70.1288 59.8544 71.0551 59.8544 71.7167 59.5236 72.1136 58.9284V59.7222H73.5029V56.5464zm-5.0946.0C68.4083 55.4218 69.1364 54.4955 70.3271 54.4955 71.452 54.4955 72.2458 55.3554 72.2458 56.5464 72.2458 57.6713 71.452 58.5976 70.3271 58.5976 69.1364 58.5312 68.4083 57.6713 68.4083 56.5464zm-46.4457.0V53.3706H20.5732V54.1647C20.1101 53.5692 19.4485 53.2384 18.5884 53.2384 16.802 53.2384 15.4126 54.6277 15.4126 56.5464 15.4126 58.4651 16.802 59.8544 18.5884 59.8544 19.5146 59.8544 20.1763 59.5236 20.5732 58.9284V59.7222H21.9626V56.5464zM16.802 56.5464C16.802 55.4218 17.5298 54.4955 18.7207 54.4955 19.8454 54.4955 20.6394 55.3554 20.6394 56.5464 20.6394 57.6713 19.8454 58.5976 18.7207 58.5976 17.5298 58.5312 16.802 57.6713 16.802 56.5464z" fill="#000"/><path d="M49.0889 5.13843H28.248V42.5862H49.0889V5.13843z" fill="#ff5f00"/><path d="M29.5716 23.8623C29.5716 16.2537 33.1443 9.50514 38.6357 5.13843 34.5997 1.96266 29.5055.0439453 23.9476.0439453 10.7815.0439453.129395 10.696.129395 23.8623.129395 37.0286 10.7815 47.6807 23.9476 47.6807 29.5055 47.6807 34.5997 45.762 38.6357 42.5862 33.1443 38.2857 29.5716 31.4711 29.5716 23.8623z" fill="#eb001b"/><path d="M77.2082 23.8623C77.2082 37.0286 66.5561 47.6807 53.3898 47.6807 47.8319 47.6807 42.7377 45.762 38.7017 42.5862 44.2592 38.2196 47.7658 31.4711 47.7658 23.8623 47.7658 16.2537 44.1931 9.50514 38.7017 5.13843 42.7377 1.96266 47.8319.0439453 53.3898.0439453 66.5561.0439453 77.2082 10.7622 77.2082 23.8623z" fill="#f79e1b"/></g><defs><clipPath id="clip0"><path d="M0 0h77.3262v60H0z" fill="#fff"/></clipPath></defs></svg>