<svg width="212" height="60" viewBox="0 0 212 60" fill="none" xmlns="http://www.w3.org/2000/svg"><g clip-path="url(#clip0)"><path fill-rule="evenodd" clip-rule="evenodd" d="M57.1179 114155e-11V.026202C57.0917.026202 48.8384 999484e-12 46.6376 7.88646 44.6201 15.1179 38.9345 35.083 38.7773 35.6332H37.2052C37.2052 35.6332 31.3886 15.2227 29.345 7.86026 27.1441-.0262 18.8646 114155e-11 18.8646 114155e-11H0V60H18.8646V24.3668H19.6507 20.4367L31.4411 60H44.5415L55.5459 24.393H57.1179V60H75.9825V114155e-11H57.1179z" fill="#4db45e"/><path fill-rule="evenodd" clip-rule="evenodd" d="M126.026.0C126.026.0 120.498.497816 117.904 6.28821L104.542 35.6332H102.969V0H84.1049V60H101.921C101.921 60 107.712 59.476 110.306 53.7118L123.406 24.3668H124.978V60H143.843V0H126.026z" fill="#4db45e"/><path fill-rule="evenodd" clip-rule="evenodd" d="M152.227 27.2489V60H171.092V40.8734H191.528C200.437 40.8734 207.983 35.1878 210.786 27.2489H152.227z" fill="#4db45e"/><path fill-rule="evenodd" clip-rule="evenodd" d="M191.529.0H149.581C151.677 11.4236 160.245 20.5939 171.328 23.5808 173.843 24.262 176.489 24.6288 179.214 24.6288H211.546C211.834 23.2664 211.965 21.8777 211.965 20.4367 211.965 9.1441 202.821.0 191.529.0z" fill="url(#paint0_linear)"/></g><defs><linearGradient id="paint0_linear" x1="149.586" y1="12.3144" x2="211.965" y2="12.3144" gradientUnits="userSpaceOnUse"><stop offset=".3" stop-color="#00b4e6"/><stop offset="1" stop-color="#088ccb"/></linearGradient><clipPath id="clip0"><path d="M0 0h211.965v60H0z" fill="#fff"/></clipPath></defs></svg>