<svg xmlns="http://www.w3.org/2000/svg" fill="#1a1f71" width="184" height="60" version="1.0" viewBox="0 0 184 60">
    <path d="M110.7 1.4c-6.3 1.7-11.8 6.3-14.1 11.8-3.6 8.6.1 15.7 11.2 21.6 7.1 3.8 8.6 5.4 7.8 8.5-1.1 4.6-9.5 6.1-18.1 3.2-2.5-.9-4.9-1.4-5.4-1.1-.5.3-1.2 2.3-1.5 4.3-.4 2.1-.9 4.5-1.2 5.5-.7 2.5 5.7 4.2 16.1 4.3 7.9 0 9.7-.3 14.8-2.8 7.1-3.5 10.7-8.9 10.7-16.1 0-7.8-2.6-10.8-15.2-18-5.6-3.2-6.4-6.5-2.3-9.2 2.5-1.6 7.9-1.6 15.6.2 2.4.5 2.7.3 3.3-3.3.4-2.1 1-4.8 1.3-5.9.4-1.9-.1-2.3-4.7-3.3-6.5-1.4-12.2-1.3-18.3.3zM0 1.8c0 .5 2.6 1.6 5.8 2.5C17 7.5 17 7.5 21.8 26.6c2.4 9.3 5.2 20.4 6.4 24.6l2 7.8h15.5l6.8-16.3c3.7-8.9 9.2-21.9 12.1-29L69.9 1H54.3L47 19.7c-4 10.4-7.6 19.1-7.9 19.5-.4.4-1.9-6.6-3.5-15.5-3-16.8-4.4-21-7.1-22.1C26 .7 0 .9 0 1.8zM70.6 28.2c-3.1 15-6 28.1-6.2 29-.5 1.6.3 1.8 7 1.8 4.2 0 7.6-.3 7.6-.7C79 57.8 89.2 9 90.5 3.2c.5-2.1.3-2.2-6.8-2.2h-7.4l-5.7 27.2zM155.2 2.7c-1.5 1.3-16.8 36.5-23.9 55.1-.4 1 1.2 1.2 7.3 1l7.9-.3 1.5-4.3 1.5-4.3 9.5.3 9.5.3.9 4.2.9 4.3h6.9c6.6 0 6.8-.1 6.3-2.2-.7-3.1-11.5-55-11.5-55.4 0-.2-3.3-.4-7.4-.4-5.6 0-7.9.4-9.4 1.7zm8.8 25.7c1.1 5.4 2 10 2 10.2 0 .2-2.7.4-6 .4s-6-.4-6-.8c0-.5 1.4-4.6 3-9.3 1.7-4.6 3.3-9 3.6-9.8.8-2.3 1.3-.9 3.4 9.3z"/>
</svg>
